<svg width="175" height="40" viewBox="0 0 175 40" fill="none" xmlns="http://www.w3.org/2000/svg">
<path d="M10.243 3.32298C15.2616 7.09061 20.6596 14.7298 22.6415 18.8294C24.6235 14.7301 30.0213 7.09053 35.04 3.32298C38.6611 0.604418 44.5283 -1.49905 44.5283 5.1943C44.5283 6.53106 43.7619 16.4237 43.3124 18.0298C41.7499 23.6135 36.0562 25.0376 30.9916 24.1757C39.8445 25.6824 42.0965 30.6732 37.2329 35.664C27.9959 45.1425 23.9567 33.2858 22.9212 30.2477C22.7315 29.6907 22.6427 29.4302 22.6414 29.6517C22.6401 29.4302 22.5513 29.6907 22.3616 30.2477C21.3266 33.2858 17.2874 45.1428 8.04988 35.664C3.18616 30.6732 5.43816 25.6821 14.2912 24.1757C9.22641 25.0376 3.53265 23.6135 1.97038 18.0298C1.52086 16.4236 0.754456 6.53091 0.754456 5.1943C0.754456 -1.49905 6.62178 0.604418 10.2428 3.32298H10.243Z" fill="#8B5CF6"/>
<path d="M54.8001 28.5V11.0455H61.6864C63.0103 11.0455 64.1381 11.2983 65.07 11.804C66.0018 12.304 66.712 13 67.2006 13.892C67.695 14.7784 67.9421 15.8011 67.9421 16.9602C67.9421 18.1193 67.6921 19.142 67.1921 20.0284C66.6921 20.9148 65.9677 21.6051 65.0188 22.0994C64.0756 22.5937 62.9336 22.8409 61.5927 22.8409H57.2035V19.8835H60.9961C61.7063 19.8835 62.2915 19.7614 62.7518 19.517C63.2177 19.267 63.5643 18.9233 63.7915 18.4858C64.0245 18.0426 64.141 17.5341 64.141 16.9602C64.141 16.3807 64.0245 15.875 63.7915 15.4432C63.5643 15.0057 63.2177 14.6676 62.7518 14.429C62.2859 14.1847 61.695 14.0625 60.979 14.0625H58.4904V28.5H54.8001ZM78.6658 22.9261V15.4091H82.2965V28.5H78.8107V26.1222H78.6744C78.3789 26.8892 77.8874 27.5057 77.1999 27.9716C76.5181 28.4375 75.6857 28.6705 74.7028 28.6705C73.8278 28.6705 73.0579 28.4716 72.3931 28.0739C71.7283 27.6761 71.2084 27.1108 70.8334 26.3778C70.4641 25.6449 70.2766 24.767 70.2709 23.7443V15.4091H73.9016V23.0966C73.9073 23.8693 74.1147 24.4801 74.5238 24.929C74.9329 25.3778 75.4812 25.6023 76.1687 25.6023C76.6062 25.6023 77.0153 25.5028 77.3959 25.304C77.7766 25.0994 78.0834 24.7983 78.3164 24.4006C78.555 24.0028 78.6715 23.5114 78.6658 22.9261ZM85.2006 28.5V15.4091H88.7205V17.6932H88.8569C89.0955 16.8807 89.4961 16.267 90.0586 15.8523C90.6211 15.4318 91.2688 15.2216 92.0018 15.2216C92.1836 15.2216 92.3796 15.233 92.5898 15.2557C92.8001 15.2784 92.9847 15.3097 93.1438 15.3494V18.571C92.9734 18.5199 92.7376 18.4744 92.4364 18.4347C92.1353 18.3949 91.8597 18.375 91.6097 18.375C91.0756 18.375 90.5984 18.4915 90.1779 18.7244C89.7631 18.9517 89.4336 19.2699 89.1893 19.679C88.9506 20.0881 88.8313 20.5597 88.8313 21.0938V28.5H85.2006ZM95.0209 33.4091V15.4091H98.6005V17.608H98.7624C98.9215 17.2557 99.1516 16.8977 99.4528 16.5341C99.7596 16.1648 100.157 15.858 100.646 15.6136C101.14 15.3636 101.754 15.2386 102.487 15.2386C103.441 15.2386 104.322 15.4886 105.129 15.9886C105.936 16.483 106.581 17.2301 107.064 18.2301C107.547 19.2244 107.788 20.4716 107.788 21.9716C107.788 23.4318 107.552 24.6648 107.081 25.6705C106.615 26.6705 105.978 27.429 105.172 27.946C104.37 28.4574 103.473 28.7131 102.478 28.7131C101.774 28.7131 101.174 28.5966 100.68 28.3636C100.191 28.1307 99.7908 27.8381 99.4783 27.4858C99.1658 27.1278 98.9272 26.767 98.7624 26.4034H98.6516V33.4091H95.0209ZM98.5749 21.9545C98.5749 22.733 98.6829 23.4119 98.8988 23.9915C99.1147 24.571 99.4272 25.0227 99.8363 25.3466C100.245 25.6648 100.743 25.8239 101.328 25.8239C101.919 25.8239 102.419 25.6619 102.828 25.3381C103.237 25.0085 103.547 24.554 103.757 23.9744C103.973 23.3892 104.081 22.7159 104.081 21.9545C104.081 21.1989 103.975 20.5341 103.765 19.9602C103.555 19.3864 103.245 18.9375 102.836 18.6136C102.427 18.2898 101.924 18.1278 101.328 18.1278C100.737 18.1278 100.237 18.2841 99.8278 18.5966C99.4244 18.9091 99.1147 19.3523 98.8988 19.9261C98.6829 20.5 98.5749 21.1761 98.5749 21.9545ZM113.839 11.0455V28.5H110.208V11.0455H113.839ZM122.713 28.7557C121.367 28.7557 120.208 28.483 119.236 27.9375C118.27 27.3864 117.526 26.608 117.003 25.6023C116.48 24.5909 116.219 23.3949 116.219 22.0142C116.219 20.6676 116.48 19.4858 117.003 18.4688C117.526 17.4517 118.262 16.6591 119.211 16.0909C120.165 15.5227 121.284 15.2386 122.569 15.2386C123.432 15.2386 124.236 15.3778 124.98 15.6562C125.73 15.929 126.384 16.3409 126.941 16.892C127.503 17.4432 127.941 18.1364 128.253 18.9716C128.566 19.8011 128.722 20.7727 128.722 21.8864V22.8835H117.668V20.6335H125.304C125.304 20.1108 125.191 19.6477 124.963 19.2443C124.736 18.8409 124.421 18.5256 124.017 18.2983C123.62 18.0653 123.157 17.9489 122.628 17.9489C122.077 17.9489 121.588 18.0767 121.162 18.3324C120.742 18.5824 120.412 18.9205 120.174 19.3466C119.935 19.767 119.813 20.2358 119.807 20.7528V22.892C119.807 23.5398 119.926 24.0994 120.165 24.571C120.409 25.0426 120.753 25.4062 121.196 25.6619C121.64 25.9176 122.165 26.0455 122.773 26.0455C123.176 26.0455 123.546 25.9886 123.881 25.875C124.216 25.7614 124.503 25.5909 124.742 25.3636C124.98 25.1364 125.162 24.858 125.287 24.5284L128.645 24.75C128.475 25.5568 128.125 26.2614 127.597 26.8636C127.074 27.4602 126.398 27.9261 125.569 28.2614C124.745 28.5909 123.793 28.7557 122.713 28.7557ZM140.628 16.0653C140.56 15.3778 140.267 14.8437 139.75 14.4631C139.233 14.0824 138.532 13.892 137.645 13.892C137.043 13.892 136.534 13.9773 136.12 14.1477C135.705 14.3125 135.387 14.5426 135.165 14.8381C134.949 15.1335 134.841 15.4688 134.841 15.8438C134.83 16.1562 134.895 16.429 135.037 16.6619C135.185 16.8949 135.387 17.0966 135.642 17.267C135.898 17.4318 136.194 17.5767 136.529 17.7017C136.864 17.821 137.222 17.9233 137.603 18.0085L139.171 18.3835C139.932 18.554 140.631 18.7812 141.267 19.0653C141.904 19.3494 142.455 19.6989 142.921 20.1136C143.387 20.5284 143.748 21.017 144.003 21.5795C144.265 22.142 144.398 22.7869 144.404 23.5142C144.398 24.5824 144.125 25.5085 143.586 26.2926C143.051 27.071 142.279 27.6761 141.267 28.108C140.262 28.5341 139.049 28.7472 137.628 28.7472C136.219 28.7472 134.992 28.5312 133.946 28.0994C132.907 27.6676 132.094 27.0284 131.509 26.1818C130.929 25.3295 130.625 24.2756 130.597 23.0199H134.168C134.208 23.6051 134.375 24.0937 134.671 24.4858C134.972 24.8722 135.373 25.1648 135.873 25.3636C136.378 25.5568 136.949 25.6534 137.586 25.6534C138.211 25.6534 138.753 25.5625 139.213 25.3807C139.679 25.1989 140.04 24.946 140.296 24.6222C140.551 24.2983 140.679 23.9261 140.679 23.5057C140.679 23.1136 140.563 22.7841 140.33 22.517C140.103 22.25 139.767 22.0227 139.324 21.8352C138.887 21.6477 138.35 21.4773 137.713 21.3239L135.813 20.8466C134.341 20.4886 133.179 19.929 132.327 19.1676C131.475 18.4062 131.051 17.3807 131.057 16.0909C131.051 15.0341 131.333 14.1108 131.901 13.321C132.475 12.5312 133.262 11.9148 134.262 11.4716C135.262 11.0284 136.398 10.8068 137.671 10.8068C138.966 10.8068 140.097 11.0284 141.063 11.4716C142.034 11.9148 142.79 12.5312 143.33 13.321C143.87 14.1108 144.148 15.0256 144.165 16.0653H140.628ZM150.108 24.733L150.116 20.3778H150.645L154.838 15.4091H159.005L153.372 21.9886H152.511L150.108 24.733ZM146.818 28.5V11.0455H150.449V28.5H146.818ZM155 28.5L151.147 22.7983L153.568 20.233L159.252 28.5H155ZM163.239 33.4091C162.779 33.4091 162.347 33.3722 161.944 33.2983C161.546 33.2301 161.216 33.142 160.955 33.0341L161.773 30.3239C162.199 30.4545 162.583 30.5256 162.924 30.5369C163.27 30.5483 163.569 30.4688 163.819 30.2983C164.074 30.1278 164.282 29.8381 164.441 29.429L164.654 28.875L159.958 15.4091H163.776L166.486 25.0227H166.623L169.358 15.4091H173.202L168.114 29.9148C167.87 30.6193 167.537 31.233 167.117 31.7557C166.702 32.2841 166.176 32.6903 165.54 32.9744C164.904 33.2642 164.137 33.4091 163.239 33.4091Z" fill="white"/>
</svg>
